<?xml version="1.0" encoding="iso-8859-1"?>
<!-- Generator: Adobe Illustrator 19.0.0, SVG Export Plug-In . SVG Version: 6.00 Build 0)  -->
<svg version="1.1" id="Layer_1" xmlns="http://www.w3.org/2000/svg" xmlns:xlink="http://www.w3.org/1999/xlink" x="0px" y="0px"
	 viewBox="0 0 512.001 512.001" style="enable-background:new 0 0 512.001 512.001;" xml:space="preserve">
<g>
	<g>
		<path d="M77.913,244.87c-18.412,0-33.391,14.979-33.391,33.391c0,18.412,14.979,33.391,33.391,33.391
			c18.412,0,33.391-14.979,33.391-33.391C111.304,259.849,96.325,244.87,77.913,244.87z M77.913,289.392
			c-6.137,0-11.13-4.993-11.13-11.13s4.993-11.13,11.13-11.13c6.137,0,11.13,4.993,11.13,11.13S84.05,289.392,77.913,289.392z"/>
	</g>
</g>
<g>
	<g>
		<path d="M166.957,310.539c-31.301,0-56.765,25.464-56.765,56.765c0,31.301,25.464,56.765,56.765,56.765
			c31.301,0,56.765-25.464,56.765-56.765C223.722,336.004,198.258,310.539,166.957,310.539z M166.957,401.809
			c-19.025,0-34.504-15.478-34.504-34.504c0-19.026,15.479-34.504,34.504-34.504s34.504,15.478,34.504,34.504
			C201.461,386.331,185.982,401.809,166.957,401.809z"/>
	</g>
</g>
<g>
	<g>
		<path d="M384.009,458.468C311.915,416.763,267.13,339.181,267.13,256S311.915,95.238,384.009,53.532
			c3.439-1.989,5.556-5.661,5.556-9.635s-2.117-7.644-5.556-9.635C345.262,11.849,300.997,0,256,0
			C187.62,0,123.333,26.629,74.981,74.982C26.628,123.333,0,187.62,0,256c0,66.225,25.196,129.046,70.948,176.895
			c4.248,4.443,11.293,4.6,15.737,0.353c4.443-4.248,4.6-11.294,0.352-15.737C45.265,373.825,22.261,316.466,22.261,256
			C22.261,127.117,127.116,22.261,256,22.261c34.768,0,69.049,7.742,100.198,22.519c-30.887,21.201-56.938,49.043-76.016,81.406
			C257.081,165.375,244.87,210.265,244.87,256s12.211,90.625,35.314,129.814c19.079,32.363,45.129,60.205,76.016,81.406
			c-31.151,14.778-65.431,22.519-100.2,22.519c-41.149,0-81.606-10.838-116.998-31.342c-5.32-3.082-12.129-1.268-15.211,4.052
			c-3.082,5.319-1.268,12.129,4.052,15.211C166.62,500.125,210.936,512,256,512c44.997,0,89.262-11.848,128.009-34.263
			c3.439-1.99,5.556-5.661,5.556-9.635S387.448,460.457,384.009,458.468z"/>
	</g>
</g>
<g>
	<g>
		<path d="M112.963,440.977c-2.582-2.593-6.422-3.773-10.04-3.05c-0.712,0.145-1.414,0.356-2.081,0.634
			c-0.679,0.278-1.325,0.623-1.926,1.024c-0.612,0.412-1.18,0.868-1.692,1.391c-2.07,2.07-3.261,4.931-3.261,7.869
			c0,0.723,0.078,1.458,0.223,2.17c0.134,0.712,0.356,1.414,0.634,2.081s0.623,1.313,1.024,1.926c0.401,0.601,0.868,1.18,1.38,1.692
			c0.512,0.512,1.08,0.979,1.692,1.38c0.601,0.401,1.247,0.746,1.926,1.024c0.668,0.278,1.369,0.49,2.081,0.634
			s1.447,0.223,2.17,0.223c2.927,0,5.799-1.191,7.869-3.261c0.512-0.512,0.979-1.091,1.38-1.692
			c0.401-0.612,0.746-1.258,1.024-1.926c0.278-0.668,0.501-1.369,0.634-2.081c0.145-0.712,0.223-1.447,0.223-2.17
			C116.224,445.908,115.033,443.047,112.963,440.977z"/>
	</g>
</g>
<g>
	<g>
		<path d="M474.141,235.949c-1.31-4.028-4.793-6.965-8.986-7.574l-45.334-6.588l-20.274-41.08c-1.875-3.799-5.744-6.204-9.982-6.204
			c-4.237,0-8.106,2.405-9.982,6.204l-20.274,41.08l-45.334,6.588c-4.193,0.609-7.676,3.546-8.984,7.575
			c-1.309,4.029-0.217,8.452,2.816,11.41l32.805,31.977l-7.743,45.151c-0.717,4.176,1.001,8.396,4.429,10.887
			c3.428,2.49,7.973,2.818,11.721,0.847l40.547-21.318l40.548,21.317c1.628,0.856,3.407,1.279,5.178,1.279
			c2.307,0,4.605-0.717,6.544-2.126c3.427-2.491,5.145-6.711,4.429-10.887l-7.743-45.151l32.805-31.977
			C474.359,244.401,475.45,239.978,474.141,235.949z M418.79,267.479c-2.622,2.557-3.82,6.241-3.201,9.852l4.921,28.691
			l-25.765-13.546c-1.621-0.853-3.4-1.279-5.179-1.279s-3.558,0.426-5.179,1.279l-25.765,13.546l4.921-28.691
			c0.619-3.611-0.579-7.295-3.201-9.852l-20.846-20.319l28.808-4.186c3.625-0.526,6.758-2.804,8.38-6.088l12.881-26.104
			l12.882,26.104c1.622,3.285,4.755,5.562,8.38,6.088l28.808,4.186L418.79,267.479z"/>
	</g>
</g>
<g>
	<g>
		<path d="M511.456,128.788c-1.31-4.029-4.793-6.967-8.986-7.575l-25.052-3.641l-11.203-22.702
			c-1.875-3.799-5.744-6.204-9.982-6.204c-4.237,0-8.106,2.405-9.982,6.204l-11.203,22.702l-25.052,3.641
			c-4.194,0.609-7.676,3.546-8.986,7.575c-1.309,4.029-0.217,8.452,2.816,11.41l18.128,17.671l-4.28,24.951
			c-0.717,4.176,1.001,8.396,4.429,10.887c3.428,2.491,7.973,2.818,11.721,0.847l22.408-11.78l22.408,11.78
			c1.628,0.856,3.407,1.279,5.178,1.279c2.307,0,4.605-0.717,6.544-2.126c3.427-2.49,5.144-6.711,4.429-10.887l-4.28-24.951
			l18.128-17.671C511.673,137.241,512.765,132.818,511.456,128.788z M470.782,146.013c-2.622,2.557-3.82,6.241-3.201,9.852
			l1.457,8.49l-7.625-4.009c-1.621-0.853-3.4-1.279-5.179-1.279s-3.558,0.426-5.179,1.279l-7.625,4.009l1.457-8.49
			c0.619-3.611-0.579-7.295-3.201-9.852l-6.17-6.013l8.525-1.239c3.626-0.526,6.76-2.804,8.381-6.088l3.812-7.724l3.812,7.724
			c1.622,3.285,4.755,5.562,8.381,6.088l8.525,1.239L470.782,146.013z"/>
	</g>
</g>
<g>
</g>
<g>
</g>
<g>
</g>
<g>
</g>
<g>
</g>
<g>
</g>
<g>
</g>
<g>
</g>
<g>
</g>
<g>
</g>
<g>
</g>
<g>
</g>
<g>
</g>
<g>
</g>
<g>
</g>
</svg>
